<?xml version="1.0" encoding="UTF-8" standalone="no"?>
<svg
   inkscape:export-ydpi="96"
   inkscape:export-xdpi="96"
   inkscape:export-filename="C:\Project Stage\Art design\Logo\logo.png"
   id="svgLogoPS"
   width="274"
   height="55"
   version="1.1"
   viewBox="0 0 72.495617 14.551821"
   sodipodi:docname="logo.svg"
   inkscape:version="1.1 (c68e22c387, 2021-05-23)"
   xmlns:inkscape="http://www.inkscape.org/namespaces/inkscape"
   xmlns:sodipodi="http://sodipodi.sourceforge.net/DTD/sodipodi-0.dtd"
   xmlns="http://www.w3.org/2000/svg"
   xmlns:svg="http://www.w3.org/2000/svg"
   xmlns:rdf="http://www.w3.org/1999/02/22-rdf-syntax-ns#"
   xmlns:cc="http://creativecommons.org/ns#"
   xmlns:dc="http://purl.org/dc/elements/1.1/">
  <sodipodi:namedview
     inkscape:document-rotation="0"
     pagecolor="#ffffff"
     bordercolor="#666666"
     borderopacity="1"
     objecttolerance="10"
     gridtolerance="10"
     guidetolerance="10"
     inkscape:pageopacity="0"
     inkscape:pageshadow="2"
     inkscape:window-width="1920"
     inkscape:window-height="1009"
     id="namedview50"
     showgrid="false"
     inkscape:object-paths="true"
     inkscape:snap-intersection-paths="true"
     inkscape:snap-smooth-nodes="true"
     inkscape:zoom="2.8284272"
     inkscape:cx="193.74725"
     inkscape:cy="79.726287"
     inkscape:window-x="-8"
     inkscape:window-y="-8"
     inkscape:window-maximized="1"
     inkscape:current-layer="g893"
     inkscape:pagecheckerboard="0" />
  <defs
     id="defs2">
    <linearGradient
       id="linearGradient887"
       x1="120.51"
       x2="169.75999"
       y1="207.14"
       y2="207.14"
       gradientTransform="translate(-35.271,77.319)"
       gradientUnits="userSpaceOnUse">
      <stop
         id="stop1633"
         stop-color="#002d3b"
         offset="0" />
      <stop
         id="stop1639"
         stop-color="#005e7a"
         offset=".36804" />
      <stop
         id="stop1641"
         stop-color="#005e7a"
         offset=".64153" />
      <stop
         id="stop1635"
         stop-color="#008fba"
         offset="1" />
    </linearGradient>
    <filter
       inkscape:collect="always"
       style="color-interpolation-filters:sRGB"
       id="filter22949"
       x="-0.047999966"
       y="-0.048000029"
       width="1.0959999"
       height="1.0960001">
      <feGaussianBlur
         inkscape:collect="always"
         stdDeviation="0.26458193"
         id="feGaussianBlur22951" />
    </filter>
    <filter
       inkscape:collect="always"
       style="color-interpolation-filters:sRGB"
       id="filter23076"
       x="-0.044210632"
       y="-0.052499852"
       width="1.0884213"
       height="1.1049997">
      <feGaussianBlur
         inkscape:collect="always"
         stdDeviation="0.19292437"
         id="feGaussianBlur23078" />
    </filter>
    <filter
       inkscape:collect="always"
       style="color-interpolation-filters:sRGB"
       id="filter23286"
       x="-0.030764963"
       y="-0.10914459"
       width="1.0615299"
       height="1.2182892">
      <feGaussianBlur
         inkscape:collect="always"
         stdDeviation="0.40656085"
         id="feGaussianBlur23288" />
    </filter>
    <filter
       inkscape:collect="always"
       style="color-interpolation-filters:sRGB"
       id="filter23308"
       x="-0.034162332"
       y="-0.080679918"
       width="1.0683247"
       height="1.1613598">
      <feGaussianBlur
         inkscape:collect="always"
         stdDeviation="0.23855838"
         id="feGaussianBlur23310" />
    </filter>
  </defs>
  <metadata
     id="metadata5">
    <rdf:RDF>
      <cc:Work
         rdf:about="">
        <dc:format>image/svg+xml</dc:format>
        <dc:type
           rdf:resource="http://purl.org/dc/dcmitype/StillImage" />
      </cc:Work>
    </rdf:RDF>
  </metadata>
  <text
     id="text5384"
     x="64.391479"
     y="-28.45533"
     fill="#000000"
     font-family="sans-serif"
     font-size="10.583px"
     letter-spacing="0px"
     stroke-width="0.26458"
     word-spacing="0px"
     style="line-height:1.25"
     xml:space="preserve"><tspan
       id="tspan5382"
       x="64.391479"
       y="-18.799828"
       stroke-width="0.26458" /></text>
  <g
     id="g1053"
     transform="translate(-8.1737176,-75.810048)">
    <g
       id="g893"
       transform="translate(0.19316968)">
      <g
         id="g23314"
         transform="translate(-0.48223254,-18.334675)">
        <path
           id="path23264"
           style="color:#000000;font-weight:bold;font-size:9.35066px;font-family:Asap;-inkscape-font-specification:'Asap, Bold';text-align:center;text-anchor:middle;fill:#002740;fill-opacity:1;stroke-width:0.264582;-inkscape-stroke:none;filter:url(#filter23308)"
           d="m 45.386893,103.65557 q 0.07511,0.11175 0.07511,0.19556 0,0.13969 -0.535176,0.13969 h -0.394339 q -0.460064,0 -0.563343,-0.17694 l -1.305073,-2.14185 -0.03755,0.009 v 2.01148 q 0,0.298 -0.563344,0.298 h -0.262894 q -0.563343,0 -0.563343,-0.298 v -6.444199 q 0,-0.298 0.563343,-0.298 h 0.262892 q 0.563344,0 0.563344,0.298 v 3.687719 l 0.03755,0.009 1.136075,-1.685549 q 0.07512,-0.11175 0.206559,-0.13969 0.131447,-0.0373 0.366173,-0.0373 h 0.347394 q 0.525787,0 0.525787,0.13969 0,0.0745 -0.08451,0.18624 l -1.305078,1.843869 z m -6.825818,0.39113 q -0.582121,0 -1.070352,-0.17694 -0.48823,-0.17694 -0.48823,-0.45631 0,-0.18625 0.178391,-0.447 0.178392,-0.27006 0.319228,-0.27006 0.07511,0 0.206559,0.0745 0.19717,0.0838 0.356784,0.13968 0.169002,0.0466 0.384951,0.0466 0.281671,0 0.422506,-0.10243 0.150226,-0.10244 0.150226,-0.28869 0,-0.18625 -0.159614,-0.28869 -0.159614,-0.10243 -0.6009,-0.28868 -0.328616,-0.13969 -0.563342,-0.27937 -0.234726,-0.149 -0.413118,-0.42838 -0.169003,-0.28868 -0.169003,-0.72637 0,-0.717049 0.460063,-1.117489 0.460064,-0.40974 1.248744,-0.40974 0.497619,0 0.948293,0.13968 0.460063,0.13969 0.460063,0.40044 0,0.17693 -0.140835,0.456309 -0.140836,0.27937 -0.262893,0.27937 -0.03755,0 -0.281672,-0.0931 -0.244115,-0.10244 -0.553954,-0.10244 -0.497619,0 -0.497619,0.34456 0,0.20488 0.169003,0.31663 0.169003,0.10243 0.610288,0.26075 0.48823,0.17693 0.807458,0.49355 0.319227,0.30731 0.319227,0.93125 0,0.72637 -0.48823,1.16405 -0.488231,0.42837 -1.352022,0.42837 z m -5.15457,0 q -0.722956,0 -1.060962,-0.3725 -0.328617,-0.3725 -0.328617,-0.98712 0,-0.74499 0.544565,-1.23855 0.553953,-0.49356 2.150091,-0.49356 v -0.30731 q 0,-0.27006 -0.178392,-0.40044 -0.169002,-0.13037 -0.553953,-0.13037 -0.319227,0 -0.563343,0.0652 -0.234726,0.0652 -0.422507,0.149 -0.187781,0.0838 -0.215949,0.0838 -0.09389,0 -0.206558,-0.13969 -0.112669,-0.13969 -0.19717,-0.316619 -0.08451,-0.18625 -0.08451,-0.28869 0,-0.15831 0.234727,-0.30731 0.234726,-0.149 0.647844,-0.24212 0.413118,-0.0931 0.910737,-0.0931 1.060963,0 1.539804,0.41906 0.478841,0.40975 0.478841,1.136119 v 1.75073 q 0,0.42838 0.01878,0.65187 0.02817,0.2235 0.06572,0.49356 0.02817,0.12106 0.02817,0.20488 0,0.149 -0.38495,0.22349 -0.375562,0.0745 -0.666623,0.0745 -0.169003,0 -0.234725,-0.13038 -0.06573,-0.13968 -0.103281,-0.29799 -0.02817,-0.15831 -0.03755,-0.21419 -0.05633,0.10244 -0.225337,0.27006 -0.169003,0.15831 -0.469453,0.298 -0.300449,0.13969 -0.6854,0.13969 z m 0.460063,-1.08956 q 0.262894,0 0.49762,-0.16762 0.234726,-0.16763 0.347394,-0.41906 v -0.51219 q -1.314466,0 -1.314466,0.68912 0,0.18625 0.122058,0.298 0.122057,0.11175 0.347394,0.11175 z m -3.361269,1.08956 q -1.370801,0 -1.370801,-1.50862 v -2.34673 h -0.150224 q -0.150225,0 -0.215949,-0.11175 -0.06572,-0.111749 -0.06572,-0.353869 v -0.15831 q 0,-0.24213 0.06572,-0.35388 0.06573,-0.11175 0.215949,-0.11175 h 0.150224 l 0.122058,-0.88468 q 0.04694,-0.29799 0.507008,-0.29799 h 0.291061 q 0.469452,0 0.469452,0.29799 v 0.88468 h 0.460063 q 0.150225,0 0.215948,0.11175 0.06573,0.11175 0.06573,0.35388 v 0.15831 q 0,0.24212 -0.06573,0.353869 -0.06572,0.11175 -0.215948,0.11175 h -0.460063 v 2.36536 q 0,0.21418 0.07511,0.30731 0.08451,0.0931 0.262894,0.0931 0.04694,0 0.122057,-0.0186 0.08451,-0.0186 0.131446,-0.0186 0.08451,0 0.150225,0.13968 0.06573,0.13969 0.10328,0.30731 0.03755,0.16763 0.03755,0.2235 0,0.45631 -0.901348,0.45631 z" />
        <path
           id="path23266"
           style="color:#000000;font-weight:bold;font-size:9.35066px;font-family:Asap;-inkscape-font-specification:'Asap, Bold';text-align:center;text-anchor:middle;fill:#184031;fill-opacity:1;stroke-width:0.264582;-inkscape-stroke:none;filter:url(#filter23286)"
           d="m 77.713331,103.99082 q -0.563344,0 -0.563344,-0.298 v -2.95204 q 0,-0.40974 -0.02817,-0.62393 -0.01878,-0.223499 -0.05633,-0.493559 -0.02817,-0.13037 -0.02817,-0.19556 0,-0.149 0.375562,-0.2235 0.384951,-0.0745 0.676011,-0.0745 0.169003,0 0.234727,0.13038 0.06572,0.12106 0.09389,0.27006 0.03755,0.14899 0.04694,0.20487 0.178392,-0.32594 0.413118,-0.51218 0.244115,-0.19557 0.610288,-0.19557 0.319228,0 0.422507,0.13038 0.112668,0.12106 0.112668,0.3725 0,0.19556 -0.08451,0.493549 -0.08451,0.28869 -0.206559,0.28869 -0.05633,0 -0.19717,-0.0373 -0.140835,-0.0373 -0.244115,-0.0373 -0.253504,0 -0.450674,0.149 -0.187781,0.13969 -0.300449,0.31662 v 2.98929 q 0,0.298 -0.563344,0.298 z m -3.361274,0.0559 q -1.239354,0 -1.849642,-0.65187 -0.600899,-0.66119 -0.600899,-1.82524 0,-1.31305 0.600899,-1.927669 0.610288,-0.61463 1.680639,-0.61463 1.042184,0 1.530415,0.6705 0.497619,0.670489 0.497619,1.732109 0,0.11175 -0.19717,0.33525 -0.187781,0.21419 -0.281672,0.21419 H 73.33804 q 0.04694,0.5308 0.319228,0.7543 0.272282,0.2235 0.760512,0.2235 0.262893,0 0.478842,-0.0559 0.215948,-0.0652 0.450673,-0.15831 0.150226,-0.0745 0.20656,-0.0745 0.09389,0 0.206558,0.13969 0.122058,0.13038 0.197171,0.30731 0.08451,0.16763 0.08451,0.26075 0,0.21419 -0.29106,0.3725 -0.291061,0.149 -0.694789,0.2235 -0.403729,0.0745 -0.704179,0.0745 z m 0.507008,-2.9893 q 0,-0.42837 -0.169003,-0.6798 -0.169002,-0.26075 -0.507008,-0.26075 -0.694789,0 -0.845014,0.94055 z m -7.436119,2.93342 q -0.563343,0 -0.563343,-0.298 v -2.95204 q 0,-0.40974 -0.02817,-0.62393 -0.01878,-0.223499 -0.05633,-0.493559 -0.02817,-0.13037 -0.02817,-0.19556 0,-0.149 0.375562,-0.2235 0.384951,-0.0745 0.676011,-0.0745 0.169003,0 0.234726,0.13038 0.06572,0.12106 0.09389,0.27006 0.03755,0.14899 0.04694,0.20487 0.225337,-0.298 0.600899,-0.50287 0.375561,-0.20488 0.798069,-0.20488 0.704178,0 1.042183,0.3725 0.338006,0.36319 0.338006,1.136109 v 3.15692 q 0,0.298 -0.563342,0.298 h -0.262894 q -0.563343,0 -0.563343,-0.298 v -2.95204 q 0,-0.28869 -0.131446,-0.42837 -0.131447,-0.149 -0.431896,-0.149 -0.253504,0 -0.450674,0.16762 -0.187781,0.15831 -0.30045,0.3725 v 2.98929 q 0,0.298 -0.563343,0.298 z m -5.229689,0 q -0.563344,0 -0.563344,-0.298 v -2.95204 q 0,-0.40974 -0.02816,-0.62393 -0.01878,-0.223499 -0.05633,-0.493559 -0.02817,-0.13037 -0.02817,-0.19556 0,-0.149 0.375562,-0.2235 0.384951,-0.0745 0.676011,-0.0745 0.169003,0 0.234727,0.13038 0.06572,0.12106 0.09389,0.27006 0.03755,0.14899 0.04694,0.20487 0.225337,-0.298 0.600899,-0.50287 0.375562,-0.20488 0.798069,-0.20488 0.704178,0 1.042184,0.3725 0.338006,0.36319 0.338006,1.136109 v 3.15692 q 0,0.298 -0.563344,0.298 h -0.262892 q -0.563344,0 -0.563344,-0.298 v -2.95204 q 0,-0.28869 -0.131446,-0.42837 -0.131446,-0.149 -0.431896,-0.149 -0.253504,0 -0.450674,0.16762 -0.187781,0.15831 -0.300449,0.3725 v 2.98929 q 0,0.298 -0.563344,0.298 z m -4.47856,0.0559 q -0.722956,0 -1.060962,-0.3725 -0.328616,-0.3725 -0.328616,-0.98712 0,-0.74499 0.544564,-1.23855 0.553954,-0.49356 2.150091,-0.49356 v -0.30731 q 0,-0.27006 -0.178391,-0.40044 -0.169003,-0.13037 -0.553954,-0.13037 -0.319228,0 -0.563343,0.0652 -0.234725,0.0652 -0.422507,0.149 -0.187781,0.0838 -0.215948,0.0838 -0.09389,0 -0.206558,-0.13969 -0.112669,-0.13969 -0.197171,-0.316619 -0.08451,-0.18625 -0.08451,-0.28869 0,-0.15831 0.234726,-0.30731 0.234726,-0.149 0.647844,-0.24212 0.413118,-0.0931 0.910738,-0.0931 1.060962,0 1.539803,0.41906 0.478841,0.40975 0.478841,1.136119 v 1.75073 q 0,0.42838 0.01878,0.65187 0.02817,0.2235 0.06573,0.49356 0.02817,0.12106 0.02817,0.20488 0,0.149 -0.384951,0.22349 -0.375562,0.0745 -0.666622,0.0745 -0.169003,0 -0.234727,-0.13038 -0.06572,-0.13968 -0.103279,-0.29799 -0.02817,-0.15831 -0.03755,-0.21419 -0.05633,0.10244 -0.225337,0.27006 -0.169003,0.15831 -0.469452,0.298 -0.300449,0.13969 -0.685401,0.13969 z m 0.460064,-1.08956 q 0.262892,0 0.497619,-0.16762 0.234726,-0.16763 0.347394,-0.41906 v -0.51219 q -1.314466,0 -1.314466,0.68912 0,0.18625 0.122057,0.298 0.122058,0.11175 0.347396,0.11175 z m -3.070208,1.08956 q -1.370801,0 -1.370801,-1.50862 v -5.289459 q 0,-0.298 0.563343,-0.298 h 0.262893 q 0.563342,0 0.563342,0.298 v 5.308089 q 0,0.21418 0.07512,0.30731 0.08451,0.0931 0.262892,0.0931 0.04694,0 0.122058,-0.0186 0.08451,-0.0186 0.131447,-0.0186 0.08451,0 0.150225,0.13968 0.06572,0.13969 0.103279,0.30731 0.03755,0.16763 0.03755,0.2235 0,0.45631 -0.901349,0.45631 z m -6.121657,1.84386 q -0.563343,0 -0.563343,-0.298 v -4.85178 q 0,-0.40974 -0.02817,-0.62393 -0.01878,-0.223499 -0.05633,-0.493559 -0.02817,-0.13037 -0.02817,-0.19556 0,-0.149 0.375562,-0.2235 0.384951,-0.0745 0.676011,-0.0745 0.169003,0 0.234727,0.13038 0.06572,0.12106 0.09389,0.27006 0.03755,0.13968 0.04694,0.19556 0.169002,-0.30731 0.49762,-0.50287 0.338005,-0.19557 0.760512,-0.19557 0.507009,0 0.901348,0.298 0.40373,0.28869 0.629067,0.856739 0.225336,0.56806 0.225336,1.35962 0,1.15474 -0.525787,1.83455 -0.516397,0.67049 -1.455301,0.67049 -0.553954,0 -0.957683,-0.28868 v 1.83455 q 0,0.29799 -0.563343,0.29799 z m 1.483469,-2.93342 q 0.873181,0 0.873181,-1.41549 0,-1.38755 -0.760512,-1.38755 -0.450675,0 -0.769902,0.54943 v 2.07667 q 0.319227,0.17694 0.657233,0.17694 z" />
      </g>
      <path
         style="fill:#184031;fill-opacity:1;stroke-width:0.264583;filter:url(#filter23076)"
         d="m 23.27415,76.794294 c -0.430495,-0.43053 -1.128551,-0.43053 -1.559046,0 l -5.835027,5.835037 -0.874103,-0.87412 c -0.430532,-0.4305 -1.128543,-0.4305 -1.559071,0 -0.430521,0.430539 -0.430521,1.12853 0,1.55907 l 1.653638,1.65363 c 0.206749,0.20667 0.487149,0.32291 0.779536,0.32291 0.292374,0 0.572787,-0.11624 0.779535,-0.32291 l 6.614538,-6.61453 c 0.430499,-0.43054 0.430499,-1.128547 0,-1.559087 z"
         id="path22953" />
      <path
         style="mix-blend-mode:normal;fill:#002740;fill-opacity:1;stroke-width:0.264583;filter:url(#filter22949)"
         d="m 10.919161,78.676253 h 5.512127 c 0.608849,0 1.102428,-0.49358 1.102428,-1.10241 0,-0.60888 -0.493579,-1.10241 -1.102428,-1.10241 h -5.512127 c -1.2177061,0 -2.2048503,0.98711 -2.2048503,2.20482 v 8.819408 c 0,1.21775 0.9871442,2.20486 2.2048503,2.20486 h 8.819404 c 1.217735,0 2.204851,-0.98711 2.204851,-2.20486 v -2.20484 c 0,-0.60886 -0.493558,-1.10246 -1.102428,-1.10246 -0.608869,0 -1.102423,0.4936 -1.102423,1.10246 v 2.20484 h -8.819404 z"
         id="path22925" />
      <text
         id="text964"
         y="85.989113"
         x="53.706791"
         style="font-style:normal;font-variant:normal;font-weight:bold;font-stretch:normal;font-size:9.35066px;line-height:1.25;font-family:Asap;-inkscape-font-specification:'Asap, Bold';font-variant-ligatures:normal;font-variant-caps:normal;font-variant-numeric:normal;font-variant-east-asian:normal;text-align:center;text-anchor:middle;fill:#002d3b;stroke:none;stroke-width:0.264582;stroke-miterlimit:4;stroke-dasharray:none"
         xml:space="preserve"
         transform="scale(1.0041051,0.99591168)"><tspan
           style="font-style:normal;font-variant:normal;font-weight:bold;font-stretch:normal;font-size:9.35066px;font-family:Asap;-inkscape-font-specification:'Asap, Bold';font-variant-ligatures:normal;font-variant-caps:normal;font-variant-numeric:normal;font-variant-east-asian:normal;fill:#002d3b;stroke:none;stroke-width:0.264583;stroke-miterlimit:4;stroke-dasharray:none"
           y="85.989113"
           x="53.706791"
           id="tspan962"
           sodipodi:role="line"><tspan
             style="fill:#7f0909;fill-opacity:1;stroke:none;stroke-width:0.264583;stroke-miterlimit:4;stroke-dasharray:none"
             id="tspan19354"><tspan
   style="fill:#0076be;fill-opacity:1"
   id="tspan13887">task</tspan> <tspan
   style="fill:#48bf91;fill-opacity:1"
   id="tspan18041">planner</tspan></tspan></tspan></text>
      <path
         style="fill:#48bf91;fill-opacity:1;stroke-width:0.264583"
         d="m 23.27415,76.794292 c -0.430495,-0.43053 -1.128551,-0.43053 -1.559046,0 l -5.835027,5.83504 -0.874103,-0.87412 c -0.430532,-0.4305 -1.128543,-0.4305 -1.559071,0 -0.430521,0.43054 -0.430521,1.12853 0,1.55907 l 1.653638,1.65363 c 0.206749,0.20667 0.487149,0.32291 0.779536,0.32291 0.292374,0 0.572787,-0.11624 0.779535,-0.32291 l 6.614538,-6.61453 c 0.430499,-0.43054 0.430499,-1.12855 0,-1.55909 z"
         id="path949" />
      <path
         style="fill:#0076be;fill-opacity:1;stroke-width:0.264583"
         d="m 10.919161,78.676252 h 5.512127 c 0.608849,0 1.102428,-0.49358 1.102428,-1.10241 0,-0.60888 -0.493579,-1.10241 -1.102428,-1.10241 h -5.512127 c -1.2177062,0 -2.2048502,0.98711 -2.2048502,2.20482 v 8.81941 c 0,1.21775 0.987144,2.20486 2.2048502,2.20486 h 8.819404 c 1.217735,0 2.204851,-0.98711 2.204851,-2.20486 v -2.20484 c 0,-0.60886 -0.493558,-1.10246 -1.102428,-1.10246 -0.608869,0 -1.102423,0.4936 -1.102423,1.10246 v 2.20484 h -8.819404 z"
         id="path2-3" />
    </g>
  </g>
</svg>
